<svg width="15" height="14" viewBox="0 0 15 14" fill="none" xmlns="http://www.w3.org/2000/svg">
<path d="M13.0582 5.84888H7.99392C7.77062 5.84888 7.58984 6.03481 7.58984 6.2645V7.92974C7.58984 8.15942 7.77062 8.34536 7.99392 8.34536H10.8464C10.5354 9.17935 9.95052 9.87661 9.20882 10.3196L10.4237 12.4852C12.3723 11.3258 13.5261 9.28872 13.5261 7.01099C13.5261 6.6856 13.5022 6.45317 13.457 6.19341C13.4198 5.9938 13.2523 5.84888 13.0582 5.84888Z" fill="#426BFF"/>
<path d="M7.31896 10.8445C5.92329 10.8445 4.70573 10.0598 4.05176 8.90039L1.94629 10.1473C3.01763 12.0586 5.02474 13.3438 7.31896 13.3438C8.44613 13.3438 9.50684 13.032 10.424 12.4879V12.4852L9.20909 10.3195C8.65082 10.6531 8.00749 10.8445 7.31896 10.8445Z" fill="#0F9D58"/>
<path d="M10.4212 12.4879V12.4852L9.20633 10.3196C8.65072 10.6504 8.00738 10.8446 7.31885 10.8446V13.3438C8.44602 13.3438 9.50673 13.0321 10.4212 12.4879Z" fill="#0F9D58"/>
<path d="M3.54125 6.95903C3.54125 6.25083 3.72999 5.58911 4.05166 5.01763L1.94619 3.77075C1.41451 4.70864 1.11145 5.79692 1.11145 6.95903C1.11145 8.12114 1.41451 9.20942 1.94619 10.1473L4.05166 8.90044C3.72734 8.32896 3.54125 7.66724 3.54125 6.95903Z" fill="#F4B400"/>
<path d="M7.31896 3.07344C8.22814 3.07344 9.06554 3.40703 9.71685 3.95938C9.87901 4.09609 10.113 4.08516 10.2592 3.93477L11.4049 2.75625C11.5724 2.58398 11.5591 2.30234 11.381 2.14375C10.2884 1.16484 8.86616 0.574219 7.31896 0.574219C5.02474 0.574219 3.01763 1.85937 1.94629 3.7707L4.05176 5.01758C4.70573 3.8582 5.92329 3.07344 7.31896 3.07344Z" fill="#DB4437"/>
<path d="M9.71674 3.95937C9.87891 4.09609 10.1128 4.08516 10.2591 3.93477L11.4048 2.75625C11.5723 2.58398 11.559 2.30234 11.3809 2.14375C10.2883 1.16484 8.86605 0.574219 7.31885 0.574219V3.07344C8.22803 3.07344 9.06543 3.4043 9.71674 3.95937Z" fill="#DB4437"/>
</svg>
